<svg width="310" height="233" viewBox="0 0 310 233" fill="none" xmlns="http://www.w3.org/2000/svg">
<path d="M-126 105.746L-82.8283 80.7859C-42.4107 57.4178 7.41064 57.4178 47.8283 80.7858L91 105.746L134.172 130.706C174.589 154.074 224.411 154.074 264.828 130.706L308 105.746" stroke="#F2AE2E" stroke-width="2.46923" stroke-linecap="round" stroke-linejoin="round"/>
<path d="M-126 84.2385L-82.8283 59.2782C-42.4107 35.9101 7.41064 35.9101 47.8283 59.2782L91 84.2385L134.172 109.199C174.589 132.567 224.411 132.567 264.828 109.199L308 84.2385" stroke="#F2AE2E" stroke-width="2.46923" stroke-linecap="round" stroke-linejoin="round"/>
<path d="M-126 62.7308L-82.8283 37.7705C-42.4107 14.4024 7.41064 14.4024 47.8283 37.7705L91 62.7308L134.172 87.6911C174.589 111.059 224.411 111.059 264.828 87.6911L308 62.7308" stroke="#F2AE2E" stroke-width="2.46923" stroke-linecap="round" stroke-linejoin="round"/>
<path d="M-126 127.254L-82.8283 102.294C-42.4107 78.9255 7.41064 78.9255 47.8283 102.294L91 127.254L134.172 152.214C174.589 175.582 224.411 175.582 264.828 152.214L308 127.254" stroke="#F2AE2E" stroke-width="2.46923" stroke-linecap="round" stroke-linejoin="round"/>
<path d="M-126 148.762L-82.8283 123.801C-42.4107 100.433 7.41064 100.433 47.8283 123.801L91 148.762L134.172 173.722C174.589 197.09 224.411 197.09 264.828 173.722L308 148.762" stroke="#F2AE2E" stroke-width="2.46923" stroke-linecap="round" stroke-linejoin="round"/>
<path d="M-126 170.269L-82.8283 145.309C-42.4107 121.941 7.41064 121.941 47.8283 145.309L91 170.269L134.172 195.23C174.589 218.598 224.411 218.598 264.828 195.23L308 170.269" stroke="#F2AE2E" stroke-width="2.46923" stroke-linecap="round" stroke-linejoin="round"/>
</svg>
