
                    <svg xmlns="http://www.w3.org/2000/svg" width="517" height="120" viewBox="10 0 217 86" fill="none">
  <g opacity="0.5">
    <rect width="2.83784" height="2.83784" rx="1.34409" fill="white"/>
    <rect x="11.3513" width="2.83784" height="2.83784" rx="1.34409" fill="white"/>
    <rect x="22.7029" width="2.83784" height="2.83784" rx="1.34409" fill="white"/>
    <rect x="34.054" width="2.83784" height="2.83784" rx="1.34409" fill="white"/>
    <rect x="45.4055" width="2.83784" height="2.83784" rx="1.34409" fill="white"/>
    <rect x="56.7568" width="2.83784" height="2.83784" rx="1.34409" fill="white"/>
    <rect x="68.1082" width="2.83784" height="2.83784" rx="1.34409" fill="white"/>
    <rect x="79.4597" width="2.83784" height="2.83784" rx="1.34409" fill="white"/>
    <rect x="90.8108" width="2.83784" height="2.83784" rx="1.34409" fill="white"/>
    <rect x="102.162" width="2.83784" height="2.83784" rx="1.34409" fill="white"/>
    <rect y="11.3513" width="2.83784" height="2.83784" rx="1.34409" fill="white"/>
    <rect x="11.3513" y="11.3513" width="2.83784" height="2.83784" rx="1.34409" fill="white"/>
    <rect x="22.7029" y="11.3513" width="2.83784" height="2.83784" rx="1.34409" fill="white"/>
    <rect x="34.054" y="11.3513" width="2.83784" height="2.83784" rx="1.34409" fill="white"/>
    <rect x="45.4055" y="11.3513" width="2.83784" height="2.83784" rx="1.34409" fill="white"/>
    <rect x="56.7568" y="11.3513" width="2.83784" height="2.83784" rx="1.34409" fill="white"/>
    <rect x="68.1082" y="11.3513" width="2.83784" height="2.83784" rx="1.34409" fill="white"/>
    <rect x="79.4597" y="11.3513" width="2.83784" height="2.83784" rx="1.34409" fill="white"/>
    <rect x="90.8108" y="11.3513" width="2.83784" height="2.83784" rx="1.34409" fill="white"/>
    <rect x="102.162" y="11.3513" width="2.83784" height="2.83784" rx="1.34409" fill="white"/>
    <rect y="22.7028" width="2.83784" height="2.83784" rx="1.34409" fill="white"/>
    <rect x="11.3513" y="22.7028" width="2.83784" height="2.83784" rx="1.34409" fill="white"/>
    <rect x="22.7029" y="22.7028" width="2.83784" height="2.83784" rx="1.34409" fill="white"/>
    <rect x="34.054" y="22.7028" width="2.83784" height="2.83784" rx="1.34409" fill="white"/>
    <rect x="45.4055" y="22.7028" width="2.83784" height="2.83784" rx="1.34409" fill="white"/>
    <rect x="56.7568" y="22.7028" width="2.83784" height="2.83784" rx="1.34409" fill="white"/>
    <rect x="68.1082" y="22.7028" width="2.83784" height="2.83784" rx="1.34409" fill="white"/>
    <rect x="79.4597" y="22.7028" width="2.83784" height="2.83784" rx="1.34409" fill="white"/>
    <rect x="90.8108" y="22.7028" width="2.83784" height="2.83784" rx="1.34409" fill="white"/>
    <rect x="102.162" y="22.7028" width="2.83784" height="2.83784" rx="1.34409" fill="white"/>
    <rect y="34.0541" width="2.83784" height="2.83784" rx="1.34409" fill="white"/>
    <rect x="11.3513" y="34.0541" width="2.83784" height="2.83784" rx="1.34409" fill="white"/>
    <rect x="22.7029" y="34.0541" width="2.83784" height="2.83784" rx="1.34409" fill="white"/>
    <rect x="34.054" y="34.0541" width="2.83784" height="2.83784" rx="1.34409" fill="white"/>
    <rect x="45.4055" y="34.0541" width="2.83784" height="2.83784" rx="1.34409" fill="white"/>
    <rect x="56.7568" y="34.0541" width="2.83784" height="2.83784" rx="1.34409" fill="white"/>
    <rect x="68.1082" y="34.0541" width="2.83784" height="2.83784" rx="1.34409" fill="white"/>
    <rect x="79.4597" y="34.0541" width="2.83784" height="2.83784" rx="1.34409" fill="white"/>
    <rect x="90.8108" y="34.0541" width="2.83784" height="2.83784" rx="1.34409" fill="white"/>
    <rect x="102.162" y="34.0541" width="2.83784" height="2.83784" rx="1.34409" fill="white"/>
    <rect y="45.4054" width="2.83784" height="2.83784" rx="1.34409" fill="white"/>
    <rect x="11.3513" y="45.4054" width="2.83784" height="2.83784" rx="1.34409" fill="white"/>
    <rect x="22.7029" y="45.4054" width="2.83784" height="2.83784" rx="1.34409" fill="white"/>
    <rect x="34.054" y="45.4054" width="2.83784" height="2.83784" rx="1.34409" fill="white"/>
    <rect x="45.4055" y="45.4054" width="2.83784" height="2.83784" rx="1.34409" fill="white"/>
    <rect x="56.7568" y="45.4054" width="2.83784" height="2.83784" rx="1.34409" fill="white"/>
    <rect x="68.1082" y="45.4054" width="2.83784" height="2.83784" rx="1.34409" fill="white"/>
    <rect x="79.4597" y="45.4054" width="2.83784" height="2.83784" rx="1.34409" fill="white"/>
    <rect x="90.8108" y="45.4054" width="2.83784" height="2.83784" rx="1.34409" fill="white"/>
    <rect x="102.162" y="45.4054" width="2.83784" height="2.83784" rx="1.34409" fill="white"/>
    <rect y="56.7567" width="2.83784" height="2.83784" rx="1.34409" fill="white"/>
    <rect x="11.3513" y="56.7567" width="2.83784" height="2.83784" rx="1.34409" fill="white"/>
    <rect x="22.7029" y="56.7567" width="2.83784" height="2.83784" rx="1.34409" fill="white"/>
    <rect x="34.054" y="56.7567" width="2.83784" height="2.83784" rx="1.34409" fill="white"/>
    <rect x="45.4055" y="56.7567" width="2.83784" height="2.83784" rx="1.34409" fill="white"/>
    <rect x="56.7568" y="56.7567" width="2.83784" height="2.83784" rx="1.34409" fill="white"/>
    <rect x="68.1082" y="56.7567" width="2.83784" height="2.83784" rx="1.34409" fill="white"/>
    <rect x="79.4597" y="56.7567" width="2.83784" height="2.83784" rx="1.34409" fill="white"/>
    <rect x="90.8108" y="56.7567" width="2.83784" height="2.83784" rx="1.34409" fill="white"/>
    <rect x="102.162" y="56.7567" width="2.83784" height="2.83784" rx="1.34409" fill="white"/>
    <rect y="68.1082" width="2.83784" height="2.83784" rx="1.34409" fill="white"/>
    <rect y="79.0562" width="2.83784" height="2.83784" rx="1.34409" fill="white"/>
    <rect x="11.3513" y="68.1082" width="2.83784" height="2.83784" rx="1.34409" fill="white"/>
    <rect x="11.3513" y="79.0562" width="2.83784" height="2.83784" rx="1.34409" fill="white"/>
    <rect x="22.7029" y="68.1082" width="2.83784" height="2.83784" rx="1.34409" fill="white"/>
    <rect x="22.7029" y="79.0562" width="2.83784" height="2.83784" rx="1.34409" fill="white"/>
    <rect x="34.054" y="68.1082" width="2.83784" height="2.83784" rx="1.34409" fill="white"/>
    <rect x="34.054" y="79.0562" width="2.83784" height="2.83784" rx="1.34409" fill="white"/>
    <rect x="45.4055" y="68.1082" width="2.83784" height="2.83784" rx="1.34409" fill="white"/>
    <rect x="45.4055" y="79.0562" width="2.83784" height="2.83784" rx="1.34409" fill="white"/>
    <rect x="56.7568" y="68.1082" width="2.83784" height="2.83784" rx="1.34409" fill="white"/>
    <rect x="56.7568" y="79.0562" width="2.83784" height="2.83784" rx="1.34409" fill="white"/>
    <rect x="68.1082" y="68.1082" width="2.83784" height="2.83784" rx="1.34409" fill="white"/>
    <rect x="68.1082" y="79.0562" width="2.83784" height="2.83784" rx="1.34409" fill="white"/>
    <rect x="79.4597" y="68.1082" width="2.83784" height="2.83784" rx="1.34409" fill="white"/>
    <rect x="79.4597" y="79.0562" width="2.83784" height="2.83784" rx="1.34409" fill="white"/>
    <rect x="90.8108" y="68.1082" width="2.83784" height="2.83784" rx="1.34409" fill="white"/>
    <rect x="90.8108" y="79.0562" width="2.83784" height="2.83784" rx="1.34409" fill="white"/>
    <rect x="102.162" y="68.1082" width="2.83784" height="2.83784" rx="1.34409" fill="white"/>
    <rect x="102.162" y="79.0562" width="2.83784" height="2.83784" rx="1.34409" fill="white"/>
    <rect x="112" width="2.83784" height="2.83784" rx="1.34409" fill="white"/>
    <rect x="123.351" width="2.83784" height="2.83784" rx="1.34409" fill="white"/>
    <rect x="134.703" width="2.83784" height="2.83784" rx="1.34409" fill="white"/>
    <rect x="146.054" width="2.83784" height="2.83784" rx="1.34409" fill="white"/>
    <rect x="157.406" width="2.83784" height="2.83784" rx="1.34409" fill="white"/>
    <rect x="168.757" width="2.83784" height="2.83784" rx="1.34409" fill="white"/>
    <rect x="180.108" width="2.83784" height="2.83784" rx="1.34409" fill="white"/>
    <rect x="191.46" width="2.83784" height="2.83784" rx="1.34409" fill="white"/>
    <rect x="202.811" width="2.83784" height="2.83784" rx="1.34409" fill="white"/>
    <rect x="214.162" width="2.83784" height="2.83784" rx="1.34409" fill="white"/>
    <rect x="112" y="11.3513" width="2.83784" height="2.83784" rx="1.34409" fill="white"/>
    <rect x="123.351" y="11.3513" width="2.83784" height="2.83784" rx="1.34409" fill="white"/>
    <rect x="134.703" y="11.3513" width="2.83784" height="2.83784" rx="1.34409" fill="white"/>
    <rect x="146.054" y="11.3513" width="2.83784" height="2.83784" rx="1.34409" fill="white"/>
    <rect x="157.406" y="11.3513" width="2.83784" height="2.83784" rx="1.34409" fill="white"/>
    <rect x="168.757" y="11.3513" width="2.83784" height="2.83784" rx="1.34409" fill="white"/>
    <rect x="180.108" y="11.3513" width="2.83784" height="2.83784" rx="1.34409" fill="white"/>
    <rect x="191.46" y="11.3513" width="2.83784" height="2.83784" rx="1.34409" fill="white"/>
    <rect x="202.811" y="11.3513" width="2.83784" height="2.83784" rx="1.34409" fill="white"/>
    <rect x="214.162" y="11.3513" width="2.83784" height="2.83784" rx="1.34409" fill="white"/>
    <rect x="112" y="22.7028" width="2.83784" height="2.83784" rx="1.34409" fill="white"/>
    <rect x="123.351" y="22.7028" width="2.83784" height="2.83784" rx="1.34409" fill="white"/>
    <rect x="134.703" y="22.7028" width="2.83784" height="2.83784" rx="1.34409" fill="white"/>
    <rect x="146.054" y="22.7028" width="2.83784" height="2.83784" rx="1.34409" fill="white"/>
    <rect x="157.406" y="22.7028" width="2.83784" height="2.83784" rx="1.34409" fill="white"/>
    <rect x="168.757" y="22.7028" width="2.83784" height="2.83784" rx="1.34409" fill="white"/>
    <rect x="180.108" y="22.7028" width="2.83784" height="2.83784" rx="1.34409" fill="white"/>
    <rect x="191.46" y="22.7028" width="2.83784" height="2.83784" rx="1.34409" fill="white"/>
    <rect x="202.811" y="22.7028" width="2.83784" height="2.83784" rx="1.34409" fill="white"/>
    <rect x="214.162" y="22.7028" width="2.83784" height="2.83784" rx="1.34409" fill="white"/>
    <rect x="112" y="34.0541" width="2.83784" height="2.83784" rx="1.34409" fill="white"/>
    <rect x="123.351" y="34.0541" width="2.83784" height="2.83784" rx="1.34409" fill="white"/>
    <rect x="134.703" y="34.0541" width="2.83784" height="2.83784" rx="1.34409" fill="white"/>
    <rect x="146.054" y="34.0541" width="2.83784" height="2.83784" rx="1.34409" fill="white"/>
    <rect x="157.406" y="34.0541" width="2.83784" height="2.83784" rx="1.34409" fill="white"/>
    <rect x="168.757" y="34.0541" width="2.83784" height="2.83784" rx="1.34409" fill="white"/>
    <rect x="180.108" y="34.0541" width="2.83784" height="2.83784" rx="1.34409" fill="white"/>
    <rect x="191.46" y="34.0541" width="2.83784" height="2.83784" rx="1.34409" fill="white"/>
    <rect x="202.811" y="34.0541" width="2.83784" height="2.83784" rx="1.34409" fill="white"/>
    <rect x="214.162" y="34.0541" width="2.83784" height="2.83784" rx="1.34409" fill="white"/>
    <rect x="112" y="45.4054" width="2.83784" height="2.83784" rx="1.34409" fill="white"/>
    <rect x="123.351" y="45.4054" width="2.83784" height="2.83784" rx="1.34409" fill="white"/>
    <rect x="134.703" y="45.4054" width="2.83784" height="2.83784" rx="1.34409" fill="white"/>
    <rect x="146.054" y="45.4054" width="2.83784" height="2.83784" rx="1.34409" fill="white"/>
    <rect x="157.406" y="45.4054" width="2.83784" height="2.83784" rx="1.34409" fill="white"/>
    <rect x="168.757" y="45.4054" width="2.83784" height="2.83784" rx="1.34409" fill="white"/>
    <rect x="180.108" y="45.4054" width="2.83784" height="2.83784" rx="1.34409" fill="white"/>
    <rect x="191.46" y="45.4054" width="2.83784" height="2.83784" rx="1.34409" fill="white"/>
    <rect x="202.811" y="45.4054" width="2.83784" height="2.83784" rx="1.34409" fill="white"/>
    <rect x="214.162" y="45.4054" width="2.83784" height="2.83784" rx="1.34409" fill="white"/>
    <rect x="112" y="56.7567" width="2.83784" height="2.83784" rx="1.34409" fill="white"/>
    <rect x="123.351" y="56.7567" width="2.83784" height="2.83784" rx="1.34409" fill="white"/>
    <rect x="134.703" y="56.7567" width="2.83784" height="2.83784" rx="1.34409" fill="white"/>
    <rect x="146.054" y="56.7567" width="2.83784" height="2.83784" rx="1.34409" fill="white"/>
    <rect x="157.406" y="56.7567" width="2.83784" height="2.83784" rx="1.34409" fill="white"/>
    <rect x="168.757" y="56.7567" width="2.83784" height="2.83784" rx="1.34409" fill="white"/>
    <rect x="180.108" y="56.7567" width="2.83784" height="2.83784" rx="1.34409" fill="white"/>
    <rect x="191.46" y="56.7567" width="2.83784" height="2.83784" rx="1.34409" fill="white"/>
    <rect x="202.811" y="56.7567" width="2.83784" height="2.83784" rx="1.34409" fill="white"/>
    <rect x="214.162" y="56.7567" width="2.83784" height="2.83784" rx="1.34409" fill="white"/>
    <rect x="112" y="68.1082" width="2.83784" height="2.83784" rx="1.34409" fill="white"/>
    <rect x="112" y="79.0562" width="2.83784" height="2.83784" rx="1.34409" fill="white"/>
    <rect x="123.351" y="68.1082" width="2.83784" height="2.83784" rx="1.34409" fill="white"/>
    <rect x="123.351" y="79.0562" width="2.83784" height="2.83784" rx="1.34409" fill="white"/>
    <rect x="134.703" y="68.1082" width="2.83784" height="2.83784" rx="1.34409" fill="white"/>
    <rect x="134.703" y="79.0562" width="2.83784" height="2.83784" rx="1.34409" fill="white"/>
    <rect x="146.054" y="68.1082" width="2.83784" height="2.83784" rx="1.34409" fill="white"/>
    <rect x="146.054" y="79.0562" width="2.83784" height="2.83784" rx="1.34409" fill="white"/>
    <rect x="157.406" y="68.1082" width="2.83784" height="2.83784" rx="1.34409" fill="white"/>
    <rect x="157.406" y="79.0562" width="2.83784" height="2.83784" rx="1.34409" fill="white"/>
    <rect x="168.757" y="68.1082" width="2.83784" height="2.83784" rx="1.34409" fill="white"/>
    <rect x="168.757" y="79.0562" width="2.83784" height="2.83784" rx="1.34409" fill="white"/>
    <rect x="180.108" y="68.1082" width="2.83784" height="2.83784" rx="1.34409" fill="white"/>
    <rect x="180.108" y="79.0562" width="2.83784" height="2.83784" rx="1.34409" fill="white"/>
    <rect x="191.46" y="68.1082" width="2.83784" height="2.83784" rx="1.34409" fill="white"/>
    <rect x="191.46" y="79.0562" width="2.83784" height="2.83784" rx="1.34409" fill="white"/>
    <rect x="202.811" y="68.1082" width="2.83784" height="2.83784" rx="1.34409" fill="white"/>
    <rect x="202.811" y="79.0562" width="2.83784" height="2.83784" rx="1.34409" fill="white"/>
    <rect x="214.162" y="68.1082" width="2.83784" height="2.83784" rx="1.34409" fill="white"/>
    <rect x="214.162" y="79.0562" width="2.83784" height="2.83784" rx="1.34409" fill="white"/>
  </g>
</svg>